<svg id="Layer_1" data-name="Layer 1" xmlns="http://www.w3.org/2000/svg" width="737" height="572.51" viewBox="0 0 737 572.51"><defs><style>.cls-1{fill:#fff;}.cls-2{fill:#15213b;}.cls-3{fill:#4c4e56;}.cls-4{fill:#9fa7aa;}.cls-5{fill:#20335c;}</style></defs><title>monmouth-hawks-logo-freelogovectors.net_</title><g id="monmouth"><g id="monmouth_BGD" data-name="monmouth BGD"><g id="monmouth-2" data-name="monmouth"><g id="g10"><g id="g12"><path id="path14" class="cls-1" d="M655.49,439.87c-.9-6.6-2.23-13.25-2.23-13.25l2.57-34.47c4.42-69.16-42.2-106.8-57-116.92-15.1-28.15-35.76-49.1-51.51-62.37l7-3.64,17.09-8.9-11.47-15.51c-39.77-53.6-97.78-64.15-128.37-65.72,1.08-3.63,1.78-5.74,1.79-5.77L439.6,94.6l-19.55-2.79a295.24,295.24,0,0,0-41.22-3.07c-50.53,0-82.33,15.55-100.11,28.59-.89.65-1.75,1.3-2.59,2l-1.17-9.2-19.77,8c-26.74,10.73-42.54,27.72-51.84,43.49l-14.29,14a84.75,84.75,0,0,0-23.08,41c-16.72,8.1-37.43,23-53.39,50a109.24,109.24,0,0,0-7.4,14.32c-8.39,18.88-20.31,57.88-5.89,106.91a161.19,161.19,0,0,0,19.2,41.66l7.34,10.43H38.7L6.5,569.41H167.9l1,15.08,20.42-6.74L209.89,571c-2.7,2.39-4.27,3.75-4.33,3.79l-21.5,18.65,26.88,9.34a247.4,247.4,0,0,0,81.37,13.6,258.66,258.66,0,0,0,32.91-2.09c-8,10.33-14.58,18.5-14.71,18.67l-19.07,23.47,30.06,3.26a266,266,0,0,0,28.72,1.59c42.21,0,81.19-10.34,115.85-30.71a206.5,206.5,0,0,0,31.95-23c2.17,9.37,3.58,15.19,4,16.85l5.35,22.05,19.31-11.93c27.92-17.3,49.57-39.17,64.48-65.11H711.3l32.2-129.54h-88" transform="translate(-6.5 -88.74)"/><path id="path16" class="cls-2" d="M641.79,455.08c-2.54-36.94-15.27-62-21.49-72.22C638.17,392,640.5,393,640.5,393l.15-1.79c4.41-69-49.43-102.95-53.43-105.37-21.86-43.07-58.77-69.07-68.07-75.14,12.32-6.69,25.51-13.57,28.14-14.94l1.29-.67-.87-1.17c-40.05-54-100.92-59.82-125.24-59.82-4.94,0-8.64.23-10.78.41,3.63-15.1,7.19-25.86,7.23-26l.47-1.41-1.47-.22A280.06,280.06,0,0,0,378.83,104c-46.41,0-75.17,13.94-91.11,25.63-12.34,9-19.15,18.22-22.1,22.84-2.31-13.3-3-19-3.07-19.26l-.2-1.6-1.5.6C216.25,150.06,207.3,187.8,205.6,199c-2.22-6.75-3.76-11.86-3.83-12.11l-.59-2-1.47,1.44c-10.92,10.69-17.78,24.43-20.39,40.86-15.57,6.2-37.42,19.41-53.74,47.22a95,95,0,0,0-6.49,12.58c-7.54,17-18.25,52.08-5.2,96.43a145.18,145.18,0,0,0,17.37,37.68l18.08,25.66,20.45-58.29h69.82c2.51,3.66,2.16,10.74-12.34,24l-17.45,15.87a135.49,135.49,0,0,0-23.09,26.65H50.59L26,554.2h156.5c0,2.68,0,5.37.22,8.07l.11,1.61,1.73-.57c3.92-1.29,14.53-4.79,27.73-9.11h38.68c-19.2,18-35.19,31.88-35.41,32.07l-1.62,1.41,2,.71a236.28,236.28,0,0,0,144.51,2.79c-11.61,18.67-37.85,51-38.12,51.35l-1.45,1.77,2.28.25A251.09,251.09,0,0,0,350.22,646c39.46,0,75.85-9.62,108.14-28.6,28.07-16.49,43.22-34.29,48.21-40.83,5.89,26.3,9.78,42.41,10.21,44.21l.4,1.66,1.46-.9c32.84-20.34,52.11-44.91,63.41-67.38H699.41l24.64-99.12H641.79" transform="translate(-6.5 -88.74)"/><path id="path18" class="cls-3" d="M249.45,373H321a10.32,10.32,0,0,0-1-.95c-3-2.48-8.45-4.46-15.52-6a175.7,175.7,0,0,0-18.19-2.86c-18.63-2.1-41.56-2.76-61.71-2.83q-4.29,0-8.39,0c-6.06,0-11.73.09-16.81.18-5.49.25-14.19.37-17.06.93,0,0-7.55.43-9.68,11.55h61.7l.47,0c4.1-.18,9-.12,14.67,0" transform="translate(-6.5 -88.74)"/><path id="path20" class="cls-4" d="M213.54,260.91a34.73,34.73,0,0,0,5,10.25,38.18,38.18,0,0,0,14,12.26,8.77,8.77,0,0,1-.85,1.53,5.52,5.52,0,0,1-6.77,2.35c-.23-.08-.44-.19-.66-.28a26.38,26.38,0,0,1-9.43-6.25,23.05,23.05,0,0,1-4.57-6.66S204.42,263.38,213.54,260.91Zm-.35,84.92c16.52-.37,36.59-.49,56.48.24a447.55,447.55,0,0,1,44.92,3.6q6.21.87,11.81,2c3.38.67,6.57,1.41,9.52,2.23-.06-1.18-.19-2.56-.41-4.09a42.88,42.88,0,0,0-9.62-21.44c-9.64-11.4-28.39-21.49-64.77-20.5a85.37,85.37,0,0,0-.31-31,58.61,58.61,0,0,0-1.91-6.9q-.81-2.32-1.84-4.59a41.2,41.2,0,0,0-8.87-12.65A39.88,39.88,0,0,0,236.5,245c-6.52-2.85-14.63-4.51-24.68-4.44h-.55a41.67,41.67,0,0,0-4.2.3,72.58,72.58,0,0,0-8.8,1.54,85.1,85.1,0,0,0-18.75,6.88c-12.63,6.38-26.78,17.43-38,36.64,0,0-34.77,52.27,3.53,121.77.83-6.58,3.49-24.51,9.5-39.14,4.61-11.19,11.17-20.45,20.37-21.19,0,0,15.85-1,38.23-1.49Z" transform="translate(-6.5 -88.74)"/><path id="path22" class="cls-5" d="M251.07,234.66a52.14,52.14,0,0,1,13.73,11.17c25.19-61.92,83.5-54.73,83.5-54.73-2.2,7.07-3.73,17.59-4.77,27.33,41.62-30.73,83.4-8.47,83.4-8.47a78.86,78.86,0,0,0-4.62,6.65c-3.4,5.36-6.89,11.78-10,17.87-.27.51-.53,1-.78,1.53a78.68,78.68,0,0,1,24.22,16.79,81.18,81.18,0,0,1,18.4,28.44c-1.36.19-2.83.46-4.36.78-2.92.6-6.11,1.42-9.4,2.37-3.82,1.1-7.77,2.37-11.61,3.67-2.58.88-5.1,1.77-7.49,2.64a79.66,79.66,0,0,1,20.85,42.9,44.84,44.84,0,0,1,.48,4.68c-6.55-1-15.72-.69-24.55,0-2.33.29-4.54.64-6.61,1.07a56.25,56.25,0,0,0-16.26,5.8,36.62,36.62,0,0,0-12.63,11.31,34.67,34.67,0,0,0-5.45,13.14c0,.07,0,.14-.05.21a174.22,174.22,0,0,1,31.59,23.37c4.58,4.21,8.86,8.52,12.83,12.8,2.67,2.9,5.2,5.78,7.59,8.6a248,248,0,0,1,26.37,37.5q1-3.89,1.92-7.7c.34-1.42.65-2.84.95-4.24a204.18,204.18,0,0,0,3.71-61.64s0-.09,0-.13a183.94,183.94,0,0,0-2.68-18.28l0-.09a157.64,157.64,0,0,0-4.49-17.33c64.7,11.91,100.44,51,100.44,51-15.57-52.63-56.71-85.32-90.7-104.12,12.79-4,52.35-15.41,86.61-13.6,0,0-21-42.89-78.62-67.38,18.31-10.39,35.18-20.06,35.18-20.06C457,141.62,377.52,159.82,377.52,159.82c3.82-21.07,6.7-30.64,6.7-30.64C299.3,123.43,260,195.26,260,195.26c-6.71-7.18-11.49-27.46-11.49-27.46-23.21,13.27-26.79,39.93-27,53.68,0,1.15,0,2.21,0,3.16,6.75,1.09,18.66,3.76,29.52,10" transform="translate(-6.5 -88.74)"/><path id="path24" class="cls-5" d="M550.24,343.4c38.39,48.76,42,96.55,42,96.55,7.75,5.37,14.66,10.73,20.07,15.13h11.06C614.31,374,550.24,343.4,550.24,343.4" transform="translate(-6.5 -88.74)"/><path id="path26" class="cls-5" d="M585.29,343.19a228.19,228.19,0,0,1,31.1,16.09c-15.55-63.51-75.87-63.34-75.87-63.34,35.34,24.63,44.77,47.25,44.77,47.25" transform="translate(-6.5 -88.74)"/><path id="path28" class="cls-5" d="M483.15,419.84c-.26,3.62-.61,7.14-1,10.56a188.24,188.24,0,0,1-4.8,24.68H498.1a210,210,0,0,0-15-35.24" transform="translate(-6.5 -88.74)"/><path id="path30" class="cls-5" d="M408.82,565.64a187.51,187.51,0,0,1-11.43,25.27,193.38,193.38,0,0,1-19.32,28.92l.2-.05,2-.56,2.14-.59c16.54-4.71,45.07-14.64,70.43-32.46,12.33-8.68,23.87-19.25,32.94-32H412.55c-1.1,3.72-2.3,7.52-3.73,11.44" transform="translate(-6.5 -88.74)"/><path id="path32" class="cls-5" d="M269.58,575.2a267.57,267.57,0,0,0,29.91-1.82,286.07,286.07,0,0,0,50.85-10.23,202.79,202.79,0,0,0,24-8.95H293.86c-7.44,6.92-15.48,13.92-24.28,21" transform="translate(-6.5 -88.74)"/><path id="path34" class="cls-5" d="M424.61,447.35A195.86,195.86,0,0,0,405.73,424q-2.84-3-5.64-5.75a191,191,0,0,0-22.24-18.65c-.14,12.87-2.5,32.06-11.85,55.51h63.65c-1.65-2.65-3.33-5.25-5-7.73" transform="translate(-6.5 -88.74)"/><path id="path36" class="cls-5" d="M484,372.54a184.11,184.11,0,0,1,41.19,82.54h43.68c-16.2-43.25-61.77-70.9-84.87-82.54" transform="translate(-6.5 -88.74)"/><path id="path38" class="cls-5" d="M529,559q1.43,7.95,2.75,17.17c.2,1.38.39,2.79.58,4.21a232.52,232.52,0,0,0,19.89-26.17H528.12c.31,1.58.61,3.13.91,4.79" transform="translate(-6.5 -88.74)"/><path id="path40" class="cls-5" d="M344.23,434c-2.84.26-5.62.59-8.36.95a176.73,176.73,0,0,0-51.55,14.75c-3.69,1.72-7.2,3.54-10.57,5.43h63.49c1-2.26,2-4.44,2.73-6.43a78.59,78.59,0,0,0,4.26-14.7" transform="translate(-6.5 -88.74)"/><path id="path42" class="cls-5" d="M236,433.8l-.52.29a111.68,111.68,0,0,0-18.24,13.27,89.79,89.79,0,0,0-7.61,7.72h13.94c3.06-5.9,6.93-12.77,11.87-20.41l.56-.87" transform="translate(-6.5 -88.74)"/><path id="path44" class="cls-1" d="M381.72,265.78a69.26,69.26,0,0,0,2-8.09,75.33,75.33,0,0,0-8.45-.82c-13.8-.6-28.61,2.21-42.28,6.27a20.83,20.83,0,1,1-37,19.19,19.94,19.94,0,0,1-1.56-4c-1.73.84-3.31,1.63-4.72,2.35-1.87.95-3.44,1.78-4.67,2.44a31.85,31.85,0,0,0,4,6.51,34.12,34.12,0,0,0,2.87,3.31,123.41,123.41,0,0,1,32.9,12.57c1.93,0,4-.07,6.06-.23,1.41-.11,2.87-.26,4.36-.45,1.74-.23,3.51-.49,5.36-.84a56.53,56.53,0,0,0,30.26-18.28c.49-.57,1-1.15,1.45-1.76a57,57,0,0,0,8.85-16.4c.2-.57.38-1.16.57-1.75" transform="translate(-6.5 -88.74)"/><path id="path46" class="cls-1" d="M75.13,496.83h-1L63,541.56H42.11l18.36-73.84H86.63c4.33,0,5.28,1.26,5.49,5.69l1.69,32h1L112.27,472c1.79-3.27,3.16-4.32,6.43-4.32h29.12l-18.36,73.84H108.15l11.08-44.73h-1L95.07,537.35c-1.79,3.16-3.16,4.21-5.9,4.21h-6c-4,0-4.85-1.26-5.17-5.48l-2.85-39.25" transform="translate(-6.5 -88.74)"/><path id="path48" class="cls-3" d="M151.37,465H118.7c-4.77,0-6.86,2.11-8.86,5.76L96.13,496.8l-1.24-23.53c-.25-5.13-1.71-8.32-8.26-8.32H58.3l-.52,2.1L39.42,540.9l-.85,3.44h26.6l.52-2.11,7.7-31.09,1.83,25.14c.37,5,1.83,8.06,7.93,8.06h6c4.27,0,6.35-2.15,8.32-5.63l15.06-26.41-7.08,28.6-.86,3.44h27l.52-2.1,18.36-73.85Zm-3.55,2.77-18.36,73.84H108.15l11.08-44.73h-1L95.07,537.35c-1.79,3.16-3.16,4.21-5.9,4.21h-6c-4,0-4.85-1.26-5.17-5.48l-2.85-39.25h-1L63,541.56H42.11l18.36-73.84H86.63c4.33,0,5.28,1.26,5.49,5.69l1.69,32h1L112.27,472c1.79-3.27,3.16-4.32,6.43-4.32Z" transform="translate(-6.5 -88.74)"/><path id="path50" class="cls-1" d="M168.26,523.53c.64.63,1.59,1,5.49,1h7.07c3.27,0,4.43-.22,5.27-1.06s2.75-2.64,6.75-18.78c3.8-15.51,2.85-18.14,2.11-18.88s-1.58-.95-5.48-.95H182.4c-3.27,0-4.43.21-5.28,1.05s-2.74,2.64-6.75,18.78c-3.9,15.51-2.85,18.15-2.11,18.89Zm-3.16,18c-9.39,0-13.19-1.79-15.3-3.9-4.85-4.85-6.85-15-2-35.34,4.43-18.46,10-25.21,13.29-28.48,5-5,10-6.12,17.72-6.12h19.31c9.39,0,13.19,1.79,15.3,3.9,4.85,4.85,6.85,15,2,35.34-4.43,18.47-10,25.22-13.29,28.49-5,5-10,6.11-17.73,6.11Z" transform="translate(-6.5 -88.74)"/><path id="path52" class="cls-3" d="M170.37,521.53c-.14-1.06-.19-4.76,2.69-16.21,2.52-10.13,4.54-16,6-17.47.19-.11.85-.27,3.34-.27h7.07a21.16,21.16,0,0,1,3.36.17c.14,1.12.12,4.82-2.68,16.24-2.51,10.11-4.53,16-6,17.45-.19.11-.85.27-3.34.27h-7.07a20.51,20.51,0,0,1-3.38-.18ZM198.12,465H178.81c-7.87,0-13.91,1.16-19.68,6.93-3.88,3.88-9.57,11.19-14,29.79-4.56,19.14-3.66,31.55,2.74,37.95,3.26,3.26,8.59,4.72,17.26,4.72h19.3c7.88,0,13.92-1.16,19.69-6.93,3.88-3.89,9.56-11.2,14-29.8,4.57-19.13,3.67-31.54-2.73-37.95-3.27-3.26-8.59-4.71-17.26-4.71Zm-24.37,59.53h7.07c3.27,0,4.43-.22,5.27-1.06s2.75-2.64,6.75-18.78c3.8-15.51,2.85-18.14,2.11-18.88s-1.58-.95-5.48-.95H182.4c-3.27,0-4.43.21-5.28,1.05s-2.74,2.64-6.75,18.78c-3.9,15.51-2.85,18.15-2.11,18.89s1.59,1,5.49,1Zm24.37-56.76c9.39,0,13.19,1.79,15.3,3.9,4.85,4.85,6.85,15,2,35.34-4.43,18.47-10,25.22-13.29,28.49-5,5-10,6.11-17.73,6.11H165.1c-9.39,0-13.19-1.79-15.3-3.9-4.85-4.85-6.85-15-2-35.34,4.43-18.46,10-25.21,13.29-28.48,5-5,10-6.12,17.72-6.12Z" transform="translate(-6.5 -88.74)"/><path id="path54" class="cls-1" d="M284.91,541.56H271.62c-5.91,0-8.34-1.58-10.13-6.43l-13.4-37.24h-.53L236.8,541.56H215.39l18.35-73.84h17c5.69,0,8.23,1.69,9.81,6.33L271.83,507h.53l9.49-39.24h21.42l-18.36,73.84" transform="translate(-6.5 -88.74)"/><path id="path56" class="cls-3" d="M306.81,465H279.67l-.51,2.12L271.68,498l-8.52-24.83c-2-5.83-5.59-8.2-12.43-8.2H231.58l-.53,2.1L212.7,540.9l-.86,3.44H239l.52-2.11,8.79-35.64,10.6,29.48c2.23,6,5.68,8.27,12.74,8.27h15.46l.52-2.1L306,468.39Zm-3.54,2.77-18.36,73.84H271.62c-5.91,0-8.34-1.58-10.13-6.43l-13.4-37.24h-.53L236.8,541.56H215.39l18.35-73.84h17c5.69,0,8.23,1.69,9.81,6.33L271.83,507h.53l9.49-39.24Z" transform="translate(-6.5 -88.74)"/><path id="path58" class="cls-1" d="M328.24,496.83h-1.06L316.1,541.56H295.21l18.36-73.84h26.17c4.32,0,5.27,1.26,5.48,5.69l1.69,32h.95L365.37,472c1.79-3.27,3.16-4.32,6.44-4.32h29.11l-18.36,73.84h-21.3l11.07-44.73h-1.05l-23.11,40.52c-1.79,3.16-3.16,4.21-5.9,4.21h-6c-4,0-4.85-1.26-5.16-5.48l-2.85-39.25" transform="translate(-6.5 -88.74)"/><path id="path60" class="cls-3" d="M404.46,465H371.81c-4.78,0-6.87,2.11-8.87,5.76L349.23,496.8,348,473.27c-.25-5.13-1.71-8.32-8.25-8.32H311.4l-.52,2.1L292.52,540.9l-.85,3.44h26.6l.53-2.11,7.7-31.1,1.82,25.15c.37,5,1.83,8.06,7.93,8.06h6c4.27,0,6.34-2.15,8.31-5.63l15.07-26.41-7.08,28.6-.85,3.44h27l.52-2.1,18.36-73.85.85-3.44Zm-3.54,2.77-18.36,73.84h-21.3l11.07-44.73h-1.05l-23.11,40.52c-1.79,3.16-3.16,4.21-5.9,4.21h-6c-4,0-4.85-1.26-5.16-5.48l-2.85-39.25h-1.06L316.1,541.56H295.21l18.36-73.84h26.17c4.32,0,5.27,1.26,5.48,5.69l1.69,32h.95L365.37,472c1.79-3.27,3.16-4.32,6.44-4.32Z" transform="translate(-6.5 -88.74)"/><path id="path62" class="cls-1" d="M421.37,523.53c.63.63,1.57,1,5.48,1h7.07c3.27,0,4.43-.22,5.27-1.06s2.75-2.64,6.76-18.78c3.79-15.51,2.85-18.14,2.11-18.88s-1.59-.95-5.49-.95H435.5c-3.27,0-4.43.21-5.27,1.05s-2.75,2.64-6.76,18.78c-3.9,15.51-2.84,18.15-2.1,18.89Zm-3.17,18c-9.39,0-13.19-1.79-15.3-3.9-4.85-4.85-6.86-15-2-35.34,4.43-18.46,10-25.21,13.29-28.48,5-5,10-6.12,17.73-6.12h19.3c9.39,0,13.19,1.79,15.3,3.9,4.85,4.85,6.85,15,2,35.34-4.44,18.47-10,25.22-13.3,28.49-5,5-10,6.11-17.72,6.11Z" transform="translate(-6.5 -88.74)"/><path id="path64" class="cls-3" d="M423.48,521.53c-.15-1-.2-4.76,2.68-16.21,2.52-10.13,4.54-16,6-17.47.18-.11.84-.27,3.33-.27h7.07a21.16,21.16,0,0,1,3.36.17c.15,1.12.12,4.82-2.68,16.24-2.51,10.11-4.53,16-6,17.45-.19.11-.85.27-3.34.27h-7.07a20.34,20.34,0,0,1-3.37-.18ZM451.22,465h-19.3c-7.88,0-13.92,1.16-19.69,6.93-3.88,3.88-9.56,11.19-14,29.79-4.56,19.14-3.66,31.55,2.75,37.95,3.26,3.26,8.58,4.72,17.25,4.72h19.31c7.87,0,13.91-1.16,19.68-6.93,3.88-3.89,9.57-11.2,14-29.8,4.56-19.13,3.66-31.55-2.74-37.95C465.21,466.4,459.89,465,451.22,465Zm-24.37,59.53h7.07c3.27,0,4.43-.22,5.27-1.06s2.75-2.64,6.76-18.78c3.79-15.51,2.85-18.14,2.11-18.88s-1.59-.95-5.49-.95H435.5c-3.27,0-4.43.21-5.27,1.05s-2.75,2.64-6.76,18.78c-3.9,15.51-2.84,18.15-2.1,18.89s1.57,1,5.48,1Zm24.37-56.76c9.39,0,13.19,1.79,15.3,3.9,4.85,4.85,6.85,15,2,35.34-4.44,18.47-10,25.22-13.3,28.49-5,5-10,6.11-17.72,6.11H418.2c-9.39,0-13.19-1.79-15.3-3.9-4.85-4.85-6.86-15-2-35.34,4.43-18.46,10-25.21,13.29-28.48,5-5,10-6.12,17.73-6.12Z" transform="translate(-6.5 -88.74)"/><path id="path66" class="cls-1" d="M499.16,511.81c-1.58,6.55-1.68,9-.73,9.92s2.74,1.06,7,1.06h5.06c3.59,0,5.59,0,6.86-1.27,1.05-1,1.79-2.74,3.48-9.6l11-44.2h22.69l-11,44.2c-4.12,16.35-7,20.36-10.34,23.74-5,5-10.45,5.9-19.94,5.9h-16c-10.34,0-16.14-1.37-19.41-4.64-3.9-3.9-4.64-11.49-1.05-25.84l10.75-43.36h22.69l-11,44.09" transform="translate(-6.5 -88.74)"/><path id="path68" class="cls-3" d="M558,465H529.6l-.52,2.1-11,44.2c-1.51,6.12-2.2,7.75-2.76,8.31s-2.51.45-4.9.45h-5.06a27.89,27.89,0,0,1-4.8-.25c0-.75.14-2.63,1.27-7.29l11-44.08.85-3.44H485.29l-.52,2.1L474,510.41c-3.69,14.77-3.14,23.55,1.79,28.47,3.87,3.88,10.07,5.46,21.37,5.46h16c9.84,0,16.25-1.07,21.9-6.72,3.61-3.61,6.72-7.75,11.06-25l11-44.21L558,465Zm-3.54,2.77-11,44.2c-4.12,16.35-7,20.36-10.34,23.74-5,5-10.45,5.9-19.94,5.9h-16c-10.34,0-16.14-1.37-19.41-4.64-3.9-3.9-4.64-11.49-1.05-25.84l10.75-43.36h22.69l-11,44.09c-1.58,6.55-1.68,9-.73,9.92s2.74,1.06,7,1.06h5.06c3.59,0,5.59,0,6.86-1.27,1.05-1,1.79-2.74,3.48-9.6l11-44.2Z" transform="translate(-6.5 -88.74)"/><polyline id="path70" class="cls-1" points="596.89 396.17 582.86 452.82 560.17 452.82 574.2 396.17 552.89 396.17 557.22 378.97 623.05 378.97 618.73 396.17 596.89 396.17"/><path id="path72" class="cls-3" d="M633.1,465H561.56L561,467l-4.32,17.2-.87,3.45h21.32L564,540.9l-.85,3.44h28.39l.53-2.11,13.5-54.54h21.84l.52-2.1,4.33-17.19.86-3.45Zm-3.55,2.77-4.33,17.19H603.39l-14,56.65H566.67l14-56.65H559.39l4.33-17.19Z" transform="translate(-6.5 -88.74)"/><polyline id="path74" class="cls-1" points="683.03 452.82 660.35 452.82 667.42 424.23 643.37 424.23 636.3 452.82 613.61 452.82 631.97 378.97 654.66 378.97 647.69 406.82 671.75 406.82 678.71 378.97 701.39 378.97 683.03 452.82"/><path id="path76" class="cls-3" d="M711.44,465H683.05l-.53,2.1-6.44,25.75H657.74l6.11-24.41.86-3.44h-28.4l-.53,2.1L617.43,540.9l-.86,3.44H645l.52-2.11L652,515.75h18.34l-6.22,25.15-.85,3.44H691.7l.53-2.11,18.35-73.84Zm-3.55,2.77-18.36,73.84H666.85L673.92,513h-24l-7.07,28.58H620.11l18.36-73.84h22.69l-7,27.85h24.06l7-27.85Z" transform="translate(-6.5 -88.74)"/></g></g></g></g></g></svg>